<svg width="24" height="24" viewBox="0 0 24 24" fill="none" xmlns="http://www.w3.org/2000/svg">
<g id="vuesax/bold/instagram">
<g id="instagram">
<path id="Vector" d="M16.1916 2H7.81159C4.17159 2 2.00159 4.17 2.00159 7.81V16.18C2.00159 19.83 4.17159 22 7.81159 22H16.1816C19.8216 22 21.9916 19.83 21.9916 16.19V7.81C22.0016 4.17 19.8316 2 16.1916 2ZM12.0016 15.88C9.86159 15.88 8.12159 14.14 8.12159 12C8.12159 9.86 9.86159 8.12 12.0016 8.12C14.1416 8.12 15.8816 9.86 15.8816 12C15.8816 14.14 14.1416 15.88 12.0016 15.88ZM17.9216 6.88C17.8716 7 17.8016 7.11 17.7116 7.21C17.6116 7.3 17.5016 7.37 17.3816 7.42C17.2616 7.47 17.1316 7.5 17.0016 7.5C16.7316 7.5 16.4816 7.4 16.2916 7.21C16.2016 7.11 16.1316 7 16.0816 6.88C16.0316 6.76 16.0016 6.63 16.0016 6.5C16.0016 6.37 16.0316 6.24 16.0816 6.12C16.1316 5.99 16.2016 5.89 16.2916 5.79C16.5216 5.56 16.8716 5.45 17.1916 5.52C17.2616 5.53 17.3216 5.55 17.3816 5.58C17.4416 5.6 17.5016 5.63 17.5616 5.67C17.6116 5.7 17.6616 5.75 17.7116 5.79C17.8016 5.89 17.8716 5.99 17.9216 6.12C17.9716 6.24 18.0016 6.37 18.0016 6.5C18.0016 6.63 17.9716 6.76 17.9216 6.88Z" fill="white"/>
</g>
</g>
</svg>
